<svg height="500pt" preserveAspectRatio="xMidYMid meet" viewBox="0 0 500 500" width="500pt" xmlns="http://www.w3.org/2000/svg"><g transform="matrix(.1 0 0 -.1 0 500)"><path d="m620 3651c0-5 23-14 50-20 104-22 216-101 266-188 29-48 61-158 70-238 3-27 9-75 13-105 9-72 6-1267-4-1345-9-80-51-211-81-258-38-58-95-94-174-108-39-7-70-16-70-21 0-4 164-8 365-8 339 0 437 8 318 24-69 10-147 51-182 95-28 35-68 139-87 222-10 47-17 1529-7 1529 5 0 40-45 78-101 39-56 75-106 80-112 6-7 28-39 51-72s62-89 87-125 66-94 91-130c98-142 305-436 315-447 6-7 11-16 11-22 0-5 4-11 8-13 5-1 69-91 144-198s162-232 195-277c32-46 107-152 167-238l109-155h56 56l1 903c0 496 3 938 7 982 20 245 83 359 221 400 51 16 48 15 76 15 11 0 20 5 20 10 0 6-129 10-366 10-336 0-428-7-307-24 95-13 179-72 214-152 22-49 45-147 55-229 8-70 12-1102 4-1115-3-5-62 75-130 177-69 102-131 192-137 199-7 7-13 15-13 19s-35 57-78 118c-42 62-126 184-185 272-60 88-195 288-301 445l-193 285-407 3c-245 1-406-1-406-7z"/><path d="m3550 3513c-47-8-153-44-204-70-254-128-397-377-390-676 8-320 193-575 491-678 195-67 442-30 620 92 51 35 173 154 173 169 0 5 6 15 14 22 25 25 75 141 97 223 29 110 29 279 0 389-65 245-242 429-486 506-67 21-247 34-315 23zm190-35c77-17 138-103 169-238 31-131 36-196 36-450 0-255-5-321-36-449-42-176-105-246-229-255-177-13-264 129-295 479-12 136-6 448 10 545 2 14 7 45 10 68 10 72 43 165 75 214 28 42 60 65 130 92 14 5 97 1 130-6z"/><path d="m3099 1918c-8-23-5-68 4-69 35-5 1137-4 1138 1 1 3 2 20 3 38l2 32h-573c-315 0-573-1-574-2z"/></g></svg>