<svg width="840" height="840" viewBox="0 0 840 840" fill="none" xmlns="http://www.w3.org/2000/svg">
<path d="M483.332 0L839.991 356.659V483.332L483.332 839.99H356.658L0 483.332V356.659L356.658 0H483.332ZM438.252 188.058L728.775 478.581L393.191 814.165H472.635L808.816 477.982L478.57 147.738L438.252 188.058ZM25.8252 472.634L362.012 808.821L692.253 478.58L651.933 438.262L361.41 728.785L25.8252 393.2V472.634ZM31.1641 362.017L361.409 692.262L401.731 651.939L111.212 361.419L446.809 25.8262H367.355L31.1641 362.017ZM206.312 419.997L419.993 633.679L633.672 420L419.99 206.318L206.312 419.997ZM147.733 361.419L188.051 401.735L478.571 111.216L814.166 446.81V367.357L477.982 31.1738L147.733 361.419Z" fill="#5C457B"/>
</svg>
